<svg width="21" height="21" viewBox="0 0 21 21" fill="none" xmlns="http://www.w3.org/2000/svg">
<path d="M10.5 0C8.4233 0 6.39323 0.615814 4.66652 1.76957C2.9398 2.92332 1.59399 4.5632 0.799269 6.48182C0.00454945 8.40045 -0.203385 10.5116 0.201759 12.5484C0.606904 14.5852 1.60693 16.4562 3.07538 17.9246C4.54383 19.3931 6.41475 20.3931 8.45155 20.7982C10.4884 21.2034 12.5996 20.9954 14.5182 20.2007C16.4368 19.406 18.0767 18.0602 19.2304 16.3335C20.3842 14.6068 21 12.5767 21 10.5C21 7.71522 19.8938 5.04451 17.9246 3.07538C15.9555 1.10625 13.2848 0 10.5 0ZM9.58125 4.39687C9.58125 4.15321 9.67805 3.91952 9.85035 3.74722C10.0226 3.57492 10.2563 3.47812 10.5 3.47812C10.7437 3.47812 10.9774 3.57492 11.1497 3.74722C11.322 3.91952 11.4188 4.15321 11.4188 4.39687V12.2719C11.4188 12.5155 11.322 12.7492 11.1497 12.9215C10.9774 13.0938 10.7437 13.1906 10.5 13.1906C10.2563 13.1906 10.0226 13.0938 9.85035 12.9215C9.67805 12.7492 9.58125 12.5155 9.58125 12.2719V4.39687ZM10.5 17.3906C10.2664 17.3906 10.038 17.3213 9.84373 17.1915C9.64948 17.0617 9.49808 16.8773 9.40867 16.6614C9.31926 16.4456 9.29587 16.2081 9.34145 15.9789C9.38703 15.7498 9.49953 15.5393 9.66473 15.3741C9.82993 15.2089 10.0404 15.0964 10.2696 15.0508C10.4987 15.0052 10.7362 15.0286 10.952 15.118C11.1679 15.2074 11.3524 15.3588 11.4822 15.5531C11.612 15.7474 11.6813 15.9757 11.6813 16.2094C11.6813 16.5227 11.5568 16.8231 11.3353 17.0446C11.1137 17.2662 10.8133 17.3906 10.5 17.3906Z" fill="#FF0000"/>
</svg>
